<svg xmlns="http://www.w3.org/2000/svg" width="27" height="29.455" viewBox="0 0 27 29.455">
  <g id="Icon_ionic-ios-stats" data-name="Icon ionic-ios-stats" transform="translate(-5.625 -4.5)">
    <path id="Pfad_32" data-name="Pfad 32" d="M12.989,33.955H16.67a.615.615,0,0,0,.614-.614V5.114A.615.615,0,0,0,16.67,4.5H12.989a.615.615,0,0,0-.614.614V33.341A.615.615,0,0,0,12.989,33.955Z" transform="translate(0.614)" fill="#261fef"/>
    <path id="Pfad_33" data-name="Pfad 33" d="M6.239,32.523H9.92a.615.615,0,0,0,.614-.614V20.864a.615.615,0,0,0-.614-.614H6.239a.615.615,0,0,0-.614.614V31.909A.615.615,0,0,0,6.239,32.523Z" transform="translate(0 1.432)" fill="#261fef"/>
    <path id="Pfad_34" data-name="Pfad 34" d="M19.746,32.932h3.666a.619.619,0,0,0,.621-.621V16.371a.619.619,0,0,0-.621-.621H19.746a.619.619,0,0,0-.621.621V32.311A.619.619,0,0,0,19.746,32.932Z" transform="translate(1.227 1.023)" fill="#261fef"/>
    <path id="Pfad_35" data-name="Pfad 35" d="M25.875,9.621v23.3a.619.619,0,0,0,.621.621h3.666a.619.619,0,0,0,.621-.621V9.621A.619.619,0,0,0,30.163,9H26.5A.619.619,0,0,0,25.875,9.621Z" transform="translate(1.841 0.409)" fill="#261fef"/>
  </g>
</svg>
