<svg xmlns="http://www.w3.org/2000/svg" width="11.295" height="13.059" viewBox="0 0 11.295 13.059">
  <g id="Pfad_3" data-name="Pfad 3" transform="translate(13.182 -1.529) rotate(90)" fill="#fff" stroke-linecap="round">
    <path d="M 13.33880805969238 12.68196868896484 L 2.778378009796143 12.68196868896484 C 2.505638122558594 12.68196868896484 2.262578010559082 12.54026889801025 2.128198146820068 12.30292892456055 C 1.993818044662476 12.06559944152832 1.997367978096008 11.78427886962891 2.13769793510437 11.5504093170166 L 7.417908191680908 2.750049114227295 C 7.556218147277832 2.519519090652466 7.789748191833496 2.387299060821533 8.058588027954102 2.387299060821533 C 8.327427864074707 2.387299060821533 8.560957908630371 2.519519090652466 8.699268341064453 2.750049114227295 L 13.97947788238525 11.5504093170166 C 14.11980819702148 11.78427886962891 14.12335777282715 12.06559944152832 13.98897838592529 12.30293941497803 C 13.85459804534912 12.54027938842773 13.61154842376709 12.68196868896484 13.33880805969238 12.68196868896484 Z" stroke="none"/>
    <path d="M 8.058588027954102 2.887299537658691 C 7.994748115539551 2.887299537658691 7.906158447265625 2.908119201660156 7.846648216247559 3.007299423217773 L 2.566437721252441 11.80765914916992 C 2.505167961120605 11.90976905822754 2.53090763092041 11.9993896484375 2.563298225402832 12.05658912658691 C 2.595678329467773 12.11378860473633 2.65928840637207 12.18196868896484 2.77836799621582 12.18196868896484 L 13.33880805969238 12.18196868896484 C 13.45788764953613 12.18196868896484 13.52149772644043 12.11378860473633 13.55387783050537 12.05658912658691 C 13.58626747131348 11.9993896484375 13.6120080947876 11.90976905822754 13.55073833465576 11.80765914916992 L 8.270527839660645 3.007288932800293 C 8.211017608642578 2.908119201660156 8.122427940368652 2.887299537658691 8.058588027954102 2.887299537658691 M 8.058588027954102 1.887301445007324 C 8.472203254699707 1.887301445007324 8.885818481445313 2.089134216308594 9.128017425537109 2.492798805236816 L 14.40822792053223 11.29315948486328 C 14.9069881439209 12.12441921234131 14.30820846557617 13.18196868896484 13.33880805969238 13.18196868896484 L 2.77836799621582 13.18196868896484 C 1.808967590332031 13.18196868896484 1.210187911987305 12.12441921234131 1.708948135375977 11.29315948486328 L 6.989157676696777 2.492798805236816 C 7.231357574462891 2.089134216308594 7.644972801208496 1.887301445007324 8.058588027954102 1.887301445007324 Z" stroke="none" fill="#fff"/>
  </g>
</svg>
