<svg xmlns="http://www.w3.org/2000/svg" width="13.989" height="13.992" viewBox="0 0 13.989 13.992">
  <path id="Icon_ionic-ios-settings" data-name="Icon ionic-ios-settings" d="M17.334,11.494a1.8,1.8,0,0,1,1.155-1.679,7.135,7.135,0,0,0-.863-2.08,1.824,1.824,0,0,1-.732.157A1.8,1.8,0,0,1,15.25,5.363,7.114,7.114,0,0,0,13.174,4.5a1.8,1.8,0,0,1-3.359,0,7.135,7.135,0,0,0-2.08.863A1.8,1.8,0,0,1,6.092,7.892a1.765,1.765,0,0,1-.732-.157A7.293,7.293,0,0,0,4.5,9.819a1.8,1.8,0,0,1,0,3.359,7.135,7.135,0,0,0,.863,2.08,1.8,1.8,0,0,1,2.372,2.372,7.177,7.177,0,0,0,2.08.863,1.8,1.8,0,0,1,3.351,0,7.135,7.135,0,0,0,2.08-.863,1.8,1.8,0,0,1,2.372-2.372,7.177,7.177,0,0,0,.863-2.08A1.809,1.809,0,0,1,17.334,11.494Zm-5.807,2.911a2.914,2.914,0,1,1,2.914-2.914A2.914,2.914,0,0,1,11.527,14.405Z" transform="translate(-4.5 -4.5)" fill="#010029"/>
</svg>
