<svg id="Icon_ionic-ios-stats" data-name="Icon ionic-ios-stats" xmlns="http://www.w3.org/2000/svg" width="13" height="14.182" viewBox="0 0 13 14.182">
  <path id="Pfad_6" data-name="Pfad 6" d="M12.67,18.682h1.773a.3.3,0,0,0,.3-.3V4.8a.3.3,0,0,0-.3-.3H12.67a.3.3,0,0,0-.3.3V18.386A.3.3,0,0,0,12.67,18.682Z" transform="translate(-8.83 -4.5)" fill="#010029"/>
  <path id="Pfad_7" data-name="Pfad 7" d="M5.92,26.159H7.693a.3.3,0,0,0,.3-.3V20.545a.3.3,0,0,0-.3-.3H5.92a.3.3,0,0,0-.3.3v5.318A.3.3,0,0,0,5.92,26.159Z" transform="translate(-5.625 -11.977)" fill="#010029"/>
  <path id="Pfad_8" data-name="Pfad 8" d="M19.424,24.023h1.765a.3.3,0,0,0,.3-.3V16.049a.3.3,0,0,0-.3-.3H19.424a.3.3,0,0,0-.3.3v7.674A.3.3,0,0,0,19.424,24.023Z" transform="translate(-12.034 -9.841)" fill="#010029"/>
  <path id="Pfad_9" data-name="Pfad 9" d="M25.875,9.3v11.22a.3.3,0,0,0,.3.3h1.765a.3.3,0,0,0,.3-.3V9.3a.3.3,0,0,0-.3-.3H26.174A.3.3,0,0,0,25.875,9.3Z" transform="translate(-15.239 -6.636)" fill="#010029"/>
</svg>
